<svg xmlns="http://www.w3.org/2000/svg" viewBox="0 0 1600 500" preserveAspectRatio="xMidYMid slice">
  <defs>
    <linearGradient id="sky" x1="0" y1="0" x2="0" y2="1">
      <stop offset="0%" stop-color="#cfe3bd"/>
      <stop offset="100%" stop-color="#9fc07f"/>
    </linearGradient>
  </defs>
  <rect width="1600" height="500" fill="url(#sky)"/>
  <circle cx="1350" cy="120" r="70" fill="#eef6e4" opacity="0.6"/>
  <g fill="#6f9552" opacity="0.55">
    <ellipse cx="150" cy="430" rx="260" ry="60"/>
    <ellipse cx="520" cy="460" rx="300" ry="55"/>
    <ellipse cx="950" cy="450" rx="320" ry="60"/>
    <ellipse cx="1350" cy="440" rx="280" ry="55"/>
  </g>
  <g fill="#4d6b34" opacity="0.7">
    <rect x="80" y="200" width="14" height="230"/>
    <path d="M87 200 C 30 170, 10 120, 40 90 C 60 130, 80 160, 87 200 Z"/>
    <path d="M87 200 C 150 175, 180 130, 160 95 C 130 130, 100 165, 87 200 Z"/>
    <path d="M87 200 C 40 210, 0 240, 10 280 C 45 250, 70 225, 87 200 Z"/>
    <path d="M87 200 C 140 215, 175 250, 160 285 C 130 250, 105 225, 87 200 Z"/>
  </g>
  <g fill="#4d6b34" opacity="0.7">
    <rect x="1460" y="230" width="12" height="200"/>
    <path d="M1466 230 C 1420 205, 1405 165, 1430 140 C 1445 175, 1460 200, 1466 230 Z"/>
    <path d="M1466 230 C 1515 210, 1540 170, 1520 140 C 1495 170, 1475 200, 1466 230 Z"/>
  </g>
  <text x="800" y="470" text-anchor="middle" font-family="sans-serif" font-size="20" fill="#2f3d24" opacity="0.45">REPLACE THIS BACKGROUND WITH YOUR OWN PHOTO (hero-bg.jpg)</text>
</svg>
